<?xml version="1.0" encoding="UTF-8"?>
<svg id="b" data-name="Layer 2" xmlns="http://www.w3.org/2000/svg" width="42.221mm" height="35.911mm" viewBox="0 0 119.683 101.794">
  <g id="c" data-name="Layer 1">
    <g>
      <path d="M90.788,1.5c-4.489,1.627-6.85,6.545-10.782,9.254-9.811,5.525-22.378,3.885-32.469,8.652-5.211,4.422-8.299,10.98-12.543,16.303-2.576,3.289-5.292,8.577-1.814,12.113,4.814,3.852,11.779-1.048,15.062-5.057,2.265-2.802,4.249-6.541,7.822-7.007,8.591,1.128,17.581,6.01,26.192,2.392" fill="none" stroke="#010101" stroke-linecap="round" stroke-miterlimit="10" stroke-width="3"/>
      <path d="M118.183,24.89c-15.461,9.931-11.156,27.764-23.696,38.839" fill="none" stroke="#010101" stroke-linecap="round" stroke-miterlimit="10" stroke-width="3"/>
      <path d="M1.5,42.301c1.201,4.485,5.263,7.523,7.847,11.381,5.985,11.637,6.851,23.978,19.27,31.799" fill="none" stroke="#010101" stroke-linecap="round" stroke-miterlimit="10" stroke-width="3"/>
      <path d="M18.352,12.693c6.243,6.04,14.133,10.361,22.584,12.369" fill="none" stroke="#010101" stroke-linecap="round" stroke-miterlimit="10" stroke-width="3"/>
      <path d="M31.807,69.564c7.392.44,42.126,38.874,41.148,20.865-5.026-8.661-13.246-16.092-21.987-20.817" fill="none" stroke="#010101" stroke-linecap="round" stroke-miterlimit="10" stroke-width="3"/>
      <path d="M74.062,91.306c1.569.99,3.693,1.018,5.289.072,9.793-6.706-15.37-26.118-20.946-30.386" fill="none" stroke="#010101" stroke-linecap="round" stroke-miterlimit="10" stroke-width="3"/>
      <path d="M82.372,85.293c17.42-5.595-10.317-28.69-17.763-33.161" fill="none" stroke="#010101" stroke-linecap="round" stroke-miterlimit="10" stroke-width="3"/>
      <path d="M87.811,73.672c5.962,1.023,6.255-7.054,3.476-10.688-5.937-11.166-16.012-19.821-27.397-25.327" fill="none" stroke="#010101" stroke-linecap="round" stroke-miterlimit="10" stroke-width="3"/>
      <path d="M35.559,72.694c-4.978,3.655-11.247,17.904-.634,17.293,4.119-2.743,6.663-7.56,10.104-11.116" fill="none" stroke="#010101" stroke-linecap="round" stroke-miterlimit="10" stroke-width="3"/>
      <path d="M38.2,87.309c-1.891,2.682-2.831,7.936,1.224,8.946,5.539-.709,9.652-6.364,13.49-10.092" fill="none" stroke="#010101" stroke-linecap="round" stroke-miterlimit="10" stroke-width="3"/>
      <path d="M45.997,93.687c-1.763,2.911-.407,6.712,3.321,6.605,4.846-.45,8.4-4.65,11.729-7.837" fill="none" stroke="#010101" stroke-linecap="round" stroke-miterlimit="10" stroke-width="3"/>
      <path d="M57.567,96.439c-.662,1.448,3.587,3.015,5.052,2.923,1.744-.109,3.959-1.982,5.085-3.108" fill="none" stroke="#010101" stroke-linecap="round" stroke-miterlimit="10" stroke-width="3"/>
    </g>
  </g>
</svg>