<?xml version="1.0" encoding="UTF-8"?>
<svg id="b" data-name="Layer 2" xmlns="http://www.w3.org/2000/svg" width="40.067mm" height="40.727mm" viewBox="0 0 113.577 115.448">
  <g id="c" data-name="Layer 1">
    <g>
      <g>
        <path d="M29.408,18.101c.378-22.137,33.307-22.134,33.681,0-.378,22.136-33.307,22.133-33.681,0Z" fill="none" stroke="#010101" stroke-linecap="round" stroke-miterlimit="10" stroke-width="3"/>
        <path d="M72.275,45.852c.34-19.883,29.916-19.88,30.253,0-.34,19.883-29.916,19.88-30.253,0Z" fill="none" stroke="#010101" stroke-linecap="round" stroke-miterlimit="10" stroke-width="3"/>
        <path d="M30.702,24.78C-.633,31.823-.845,87.149,3.5,112.472" fill="none" stroke="#010101" stroke-linecap="round" stroke-miterlimit="10" stroke-width="3"/>
        <path d="M23.031,88.854c-.754,8.04-1.005,16.127-.749,24.198" fill="none" stroke="#010101" stroke-linecap="round" stroke-miterlimit="10" stroke-width="3"/>
        <path d="M16.081,47.691c-1.017,25.343,5.302,25.773,27.15,32.003,17.607,5.359,14.377-13.392-.07-15.281-15.193-3.337-11.792-5.624-13.336-19.147" fill="none" stroke="#010101" stroke-linecap="round" stroke-miterlimit="10" stroke-width="3"/>
        <path d="M43.158,35.029c.398,8.866-1.194,17.815-4.625,26" fill="none" stroke="#010101" stroke-linecap="round" stroke-miterlimit="10" stroke-width="3"/>
        <path d="M35.325,77.698c-.677,11.602-.784,23.238-.321,34.851" fill="none" stroke="#010101" stroke-linecap="round" stroke-miterlimit="10" stroke-width="3"/>
        <path d="M50.137,66.044c-.376-5.247,9.005-3.094,12.591-3.612,4.526.665,1.886,6.409,1.66,9.368-.273,3.912-4.276,5.138-7.646,4.919" fill="none" stroke="#010101" stroke-linecap="round" stroke-miterlimit="10" stroke-width="3"/>
        <path d="M85.654,61.84c-6.438,5.745-8.453,14.688-9.253,22.963-2.222.79-7.017,2.05-9.341,2.45" fill="none" stroke="#010101" stroke-linecap="round" stroke-miterlimit="10" stroke-width="3"/>
        <path d="M94.368,59.671c21.965,3.205,17.405,35.347,17.146,51.654" fill="none" stroke="#010101" stroke-linecap="round" stroke-miterlimit="10" stroke-width="3"/>
        <path d="M90.75,71.632c-1.983,5.048-4.152,10.022-6.503,14.909-1.089,3.329-4.276,4.313-7.422,3.084-7.034-2.144-23.346-6.697-24.589,4.158,1.594,7.231,17.727,6.228,32.909,9.086,9.57,1.801,14.361-14.86,17.928-22.201" fill="none" stroke="#010101" stroke-linecap="round" stroke-miterlimit="10" stroke-width="3"/>
        <path d="M52.862,40.982c4.427,5.575-6.1,10.99-.101,15.298" fill="none" stroke="#010101" stroke-linecap="round" stroke-miterlimit="10" stroke-width="3"/>
        <path d="M58.51,39.885c6.824,5.402-5.187,9.418,2.414,14.813" fill="none" stroke="#010101" stroke-linecap="round" stroke-miterlimit="10" stroke-width="3"/>
      </g>
      <path d="M76.675,103.578c-.572,3.421-.732,6.911-.476,10.37" fill="none" stroke="#010101" stroke-linecap="round" stroke-miterlimit="10" stroke-width="3"/>
    </g>
  </g>
</svg>