<?xml version="1.0" encoding="UTF-8"?>
<svg id="b" data-name="Layer 2" xmlns="http://www.w3.org/2000/svg" width="50.298mm" height="41.732mm" viewBox="0 0 142.578 118.295">
  <g id="c" data-name="Layer 1">
    <g>
      <g>
        <path d="M25.825,16.137c.333-19.517,29.364-19.514,29.695,0-.333,19.516-29.364,19.513-29.695,0Z" fill="none" stroke="#010101" stroke-linecap="round" stroke-miterlimit="10" stroke-width="3"/>
        <path d="M28.379,24.656c-5.816,3.145-11.719,6.426-14.974,12.18-4.589,10.437-4.639,22.836-4.583,34.105-.237,14.279,14.545,11.417,24.351,13.343,4.003-.022,6.583,2.795,6.753,6.732.887,5.754,1.518,11.547,1.89,17.357-.195,4.092,2.065,7.715,6.429,7.755,2.079.02,10.135.667,10.61-1.369-.154-2.104-2.197-3.455-3.594-5.035-6.95-9.731-.649-23.828-4.993-34.386" fill="none" stroke="#010101" stroke-linecap="round" stroke-miterlimit="10" stroke-width="3"/>
        <path d="M40.672,31.771c1.753,10.112,2.784,19.989,1.712,30.956" fill="none" stroke="#010101" stroke-linecap="round" stroke-miterlimit="10" stroke-width="3"/>
        <path d="M60.353,78.454c1.246,7.442,1.428,15.061.54,22.554-.202,1.704-.359,3.701.906,4.859,2.079,1.343,6.246,3.412,5.207,6.408-2.282.857-5.084.207-7.533.482" fill="none" stroke="#010101" stroke-linecap="round" stroke-miterlimit="10" stroke-width="3"/>
        <path d="M16.754,51.889c7.384,24.812,15.181,15.735,33.359,22.894,16.091,8.991,16.442-8.48-1.381-10.211-17.301-3.794-18.471.539-23.705-18.548" fill="none" stroke="#010101" stroke-linecap="round" stroke-miterlimit="10" stroke-width="3"/>
        <path d="M51.387,28.407c4.881,1.643,2.199,5.521-.757,7.953-.987.812-1.708,1.906-2.075,3.13-2.353,7.85,3.79,16.305,1.093,24.169" fill="none" stroke="#010101" stroke-linecap="round" stroke-miterlimit="10" stroke-width="3"/>
        <line x1="7.629" y1="84.881" x2="36.138" y2="84.881" fill="none" stroke="#010101" stroke-linecap="round" stroke-miterlimit="10" stroke-width="3"/>
        <line x1="13.428" y1="86.737" x2="7.049" y2="113.764" fill="none" stroke="#010101" stroke-linecap="round" stroke-miterlimit="10" stroke-width="3"/>
        <line x1="31.217" y1="85.845" x2="37.102" y2="115.254" fill="none" stroke="#010101" stroke-linecap="round" stroke-miterlimit="10" stroke-width="3"/>
        <path d="M7.325,84.136c-2.383-11.316-4.236-22.744-5.551-34.233-1.467-5.112,3.176-10.583,8.483-8.837" fill="none" stroke="#010101" stroke-linecap="round" stroke-miterlimit="10" stroke-width="3"/>
      </g>
      <g>
        <path d="M96.886,16.137c.333-19.517,29.364-19.514,29.695,0-.333,19.516-29.364,19.513-29.695,0Z" fill="none" stroke="#010101" stroke-linecap="round" stroke-miterlimit="10" stroke-width="3"/>
        <line x1="106.03" y1="84.881" x2="136.072" y2="84.881" fill="none" stroke="#010101" stroke-linecap="round" stroke-miterlimit="10" stroke-width="3"/>
        <line x1="111.734" y1="86.438" x2="104.586" y2="114.656" fill="none" stroke="#010101" stroke-linecap="round" stroke-miterlimit="10" stroke-width="3"/>
        <line x1="133.129" y1="86.438" x2="139.015" y2="115.848" fill="none" stroke="#010101" stroke-linecap="round" stroke-miterlimit="10" stroke-width="3"/>
        <path d="M111.169,31.771c-7.108,7.451-5.754,18.506-8.228,27.716-2.251,4.533-15.985,8.932-9.752,14.775" fill="none" stroke="#010101" stroke-linecap="round" stroke-miterlimit="10" stroke-width="3"/>
        <path d="M110.246,45.759c-1.189,6.55,1.846,13.792-1.255,20.008" fill="none" stroke="#010101" stroke-linecap="round" stroke-miterlimit="10" stroke-width="3"/>
        <path d="M122.03,45.023c-1.985,7.307.079,18.506-9.472,20.488-4.063,2.179-19.468,5.62-18.37,11.011" fill="none" stroke="#010101" stroke-linecap="round" stroke-miterlimit="10" stroke-width="3"/>
        <path d="M123.029,26.83c15.028,7.578,11.125,29.395,5,41.916-5.062,5.752-27.208,11.652-34.207,7.592-7.883,7.373-2.734,21.58-2.071,30.941-1.666,3.197-7.228,4.485-7.642,8.214.836,2.607,12.265.513,15.013.402,3.62-5.586.248-29.83,6.907-33.39" fill="none" stroke="#010101" stroke-linecap="round" stroke-miterlimit="10" stroke-width="3"/>
        <path d="M91.312,70.98c-5.643,1.108-10.29,4.923-8.805,10.973-.126,6.651,4.087,18.16,1.892,23.585-1.956,2.14-6.13,3.685-5.572,7.183.329,1.412,2.443,2.243,3.287,1.064" fill="none" stroke="#010101" stroke-linecap="round" stroke-miterlimit="10" stroke-width="3"/>
        <path d="M133.84,48.2c1.587,11.997,2.93,25.605-4.495,35.977" fill="none" stroke="#010101" stroke-linecap="round" stroke-miterlimit="10" stroke-width="3"/>
        <path d="M136.977,84.161c2.006-11.84,3.347-23.793,4.015-35.783.661-3.402-2.605-4.755-5.665-4.638" fill="none" stroke="#010101" stroke-linecap="round" stroke-miterlimit="10" stroke-width="3"/>
      </g>
    </g>
  </g>
</svg>