<?xml version="1.0" encoding="UTF-8"?>
<svg id="b" data-name="Layer 2" xmlns="http://www.w3.org/2000/svg" width="37.571mm" height="38.037mm" viewBox="0 0 106.5 107.82">
  <g id="c" data-name="Layer 1">
    <g>
      <path d="M26.428,17.567c.366-21.424,32.234-21.421,32.597,0-.366,21.424-32.234,21.42-32.597,0Z" fill="none" stroke="#010101" stroke-linecap="round" stroke-miterlimit="10" stroke-width="3"/>
      <path d="M72.7,40.354c.343-20.1,30.242-20.097,30.582,0-.343,20.1-30.242,20.096-30.582,0Z" fill="none" stroke="#010101" stroke-linecap="round" stroke-miterlimit="10" stroke-width="3"/>
      <path d="M27.977,24.719c-1.73,4.309-5.311,6.482-8.985,8.666-4.214,2.505-7.591,6.224-9.596,10.698C1.887,60.85,2.107,88.551,1.5,104.798" fill="none" stroke="#010101" stroke-linecap="round" stroke-miterlimit="10" stroke-width="3"/>
      <path d="M6.372,52.802c.411,7.975,2.558,29.996,13.956,30.525,9.742.588,21.667,1.628,29.259-2.803,3.869-3.948,5.011-7.805,11.063-4.55,3.502-1.227,6.996-5.429,6.475-9.093-.524-3.198-4.028-5.233-7.267-5.145-6.688.232-11.158,6.534-17.248,8.48-4.88,1.113-13.012,1.309-17.649-.355-1.178-7.004-2.169-13.293-3.662-19.784" fill="none" stroke="#010101" stroke-linecap="round" stroke-miterlimit="10" stroke-width="3"/>
      <path d="M45.584,55.222c-1.151,4.758-2.101,9.564-2.848,14.402" fill="none" stroke="#010101" stroke-linecap="round" stroke-miterlimit="10" stroke-width="3"/>
      <path d="M41.167,83.327c-.682,6.833-.93,13.709-.741,20.573" fill="none" stroke="#010101" stroke-linecap="round" stroke-miterlimit="10" stroke-width="3"/>
      <path d="M42.737,33.634c7.863,6.47,11.116,17.864,13.719,27.342" fill="none" stroke="#010101" stroke-linecap="round" stroke-miterlimit="10" stroke-width="3"/>
      <path d="M81.676,54.22c-5.411,2.947-11.594,4.325-16.094,8.659" fill="none" stroke="#010101" stroke-linecap="round" stroke-miterlimit="10" stroke-width="3"/>
      <path d="M58.682,76.882c-.091,6.949-4.91,24.831-1.442,29.438" fill="none" stroke="#010101" stroke-linecap="round" stroke-miterlimit="10" stroke-width="3"/>
      <path d="M72.7,78.312c-1.876,5.821-4.657,11.611-5.278,17.818.325,3.144,2.04,5.873,3.07,8.761" fill="none" stroke="#010101" stroke-linecap="round" stroke-miterlimit="10" stroke-width="3"/>
      <path d="M91.266,55.428c16.39,8.374,13.367,31.353,13.718,48.462" fill="none" stroke="#010101" stroke-linecap="round" stroke-miterlimit="10" stroke-width="3"/>
    </g>
  </g>
</svg>