<?xml version="1.0" encoding="UTF-8"?>
<svg id="b" data-name="Layer 2" xmlns="http://www.w3.org/2000/svg" width="34.091mm" height="38.602mm" viewBox="0 0 96.636 109.422">
  <g id="c" data-name="Layer 1">
    <g>
      <path d="M24.758,17.835c.372-21.782,32.773-21.779,33.142,0-.372,21.782-32.773,21.778-33.142,0Z" fill="none" stroke="#010101" stroke-linecap="round" stroke-miterlimit="10" stroke-width="3"/>
      <path d="M26.474,28.494C.918,42.775,4.287,78.484,1.5,102.403" fill="none" stroke="#010101" stroke-linecap="round" stroke-miterlimit="10" stroke-width="3"/>
      <path d="M38.277,34.171c3.174,6.002,5.668,15.261,4.949,22.005" fill="none" stroke="#010101" stroke-linecap="round" stroke-miterlimit="10" stroke-width="3"/>
      <path d="M42.621,73.982c0,13.859-1.31,18.467-1.807,29.938" fill="none" stroke="#010101" stroke-linecap="round" stroke-miterlimit="10" stroke-width="3"/>
      <path d="M25.124,45.075c1.408,4.628.962,10.394,3.866,14.337,2.909,2.323,6.565-.228,9.535-1.18,8.015-2.867,16.832,6.543,11.738,13.992-2.246,3.308-6.729,3.689-8.924.414-2.484-2.093-6.187-.773-9.356-.058-15.521,3.333-14.761-6.693-18.22-18.253" fill="none" stroke="#010101" stroke-linecap="round" stroke-miterlimit="10" stroke-width="3"/>
      <path d="M88.924,40.697c-.371,6.259-6.364,9.977-11.572,13.048-1.741,5.722-.317,12.836-4.477,17.38-9.563,6.479-12.222,15.036-13.283,26.178-9.783-7.791-7.311-18.636-1.623-27.78,2.16-7.027,1.628-14.842,5.043-21.528,4.051-9.207,16.31-13.994,25.912-7.298Z" fill="none" stroke="#010101" stroke-linecap="round" stroke-miterlimit="10" stroke-width="3"/>
      <path d="M72.545,73.162c16.981,2.785,19.506,20.992,22.59,34.76" fill="none" stroke="#010101" stroke-linecap="round" stroke-miterlimit="10" stroke-width="3"/>
      <path d="M58.498,106.371c.169-2.518.966-8.153,1.57-13.08" fill="none" stroke="#010101" stroke-linecap="round" stroke-miterlimit="10" stroke-width="3"/>
      <path d="M87.387,39.75c15.764,8.587,5.31,33.5-12.013,28.002" fill="none" stroke="#010101" stroke-linecap="round" stroke-miterlimit="10" stroke-width="3"/>
      <path d="M87.387,39.75c15.764,8.587,5.31,33.5-12.013,28.002" fill="none" stroke="#010101" stroke-linecap="round" stroke-miterlimit="10" stroke-width="3"/>
      <path d="M80.335,69.562c-.499,1.629-.914,3.284-1.242,4.956" fill="none" stroke="#010101" stroke-linecap="round" stroke-miterlimit="10" stroke-width="3"/>
      <path d="M48.628,58.222c1.613-3.957,3.455-7.82,5.514-11.564.149-.27.317-.557.597-.686.294-.135.637-.061.952.015.542.131,1.085.262,1.627.392.391.094.82.215,1.036.554.216.338.145.776.067,1.169-.721,3.626-1.681,7.627-4.748,9.692-.335.225-.695.427-.955.736-.261.31-.954,2.13-1.088,2.513-.668,1.919-.782,2.41-3.003-2.821Z" fill="none" stroke="#010101" stroke-linecap="round" stroke-miterlimit="10" stroke-width="3"/>
    </g>
  </g>
</svg>