<?xml version="1.0" encoding="UTF-8"?>
<svg id="b" data-name="Layer 2" xmlns="http://www.w3.org/2000/svg" width="45.455mm" height="40.842mm" viewBox="0 0 128.85 115.772">
  <g id="c" data-name="Layer 1">
    <g>
      <path d="M29.245,23.783c.34-19.883,29.916-19.88,30.253,0-.34,19.883-29.916,19.88-30.253,0Z" fill="none" stroke="#010101" stroke-linecap="round" stroke-miterlimit="10" stroke-width="3"/>
      <path d="M64.657,16.411c.34-19.883,29.916-19.88,30.253,0-.34,19.883-29.916,19.88-30.253,0Z" fill="none" stroke="#010101" stroke-linecap="round" stroke-miterlimit="10" stroke-width="3"/>
      <path d="M27.866,35.155c-8.958-1.34-15.518,5.877-15.199,14.666-.501,3.011,1.84,6.719,5.002,4.618.571-.126,1.182.097,1.746-.059.771-.214,1.228-1.068,1.994-1.3,5.829.102,2.503-13.431,6.457-17.924Z" fill="none" stroke="#010101" stroke-linecap="round" stroke-miterlimit="10" stroke-width="3"/>
      <path d="M58.875,31.164c3.296-1.422,6.838-2.275,10.42-2.509" fill="none" stroke="#010101" stroke-linecap="round" stroke-miterlimit="10" stroke-width="3"/>
      <path d="M14.91,55.351c-3.759,34.347,11.533,25.36,34.805,39.564,2.287,2.033,5.951.792,6.302-2.249.741-11.84-14.697-14.297-22.938-18.699-7.637-2.248-4.036-12.948-3.845-18.856" fill="none" stroke="#010101" stroke-linecap="round" stroke-miterlimit="10" stroke-width="3"/>
      <path d="M27.551,36.723l5.711-1.675" fill="none" stroke="#010101" stroke-linecap="round" stroke-miterlimit="10" stroke-width="3"/>
      <path d="M18.735,80.949c-4.665,21.476,17.754,13.787,15.282,32.486" fill="none" stroke="#010101" stroke-linecap="round" stroke-miterlimit="10" stroke-width="3"/>
      <path d="M53.23,113.918c-.038-6.142,1.727-13.73-3.055-18.559" fill="none" stroke="#010101" stroke-linecap="round" stroke-miterlimit="10" stroke-width="3"/>
      <path d="M58.697,54.379c.184,8.864-.649,18.03.759,26.756,9.112,7.837,10.835,20.15,10.228,31.622" fill="none" stroke="#010101" stroke-linecap="round" stroke-miterlimit="10" stroke-width="3"/>
      <path d="M50.696,37.429c17.372,2.298,20.869,23.1,20.42,37.749" fill="none" stroke="#010101" stroke-linecap="round" stroke-miterlimit="10" stroke-width="3"/>
      <path d="M97.709,48.618c-.08,5.204,1.989,10.981.403,15.95-5.434,4.365-12.569,6.569-19.141,8.759-15.631,2.021-16.011,20.491-8.453,16.35,11.853-6.112,29.085-6.201,38.725-15.433,4.661-6.483,3.472-15.507,4.106-23.162,1.346-15.518-8.009-23.865-23.068-23.622" fill="none" stroke="#010101" stroke-linecap="round" stroke-miterlimit="10" stroke-width="3"/>
      <path d="M84.786,85.804c5.255,8.318,5.377,18.573,5.351,28.119" fill="none" stroke="#010101" stroke-linecap="round" stroke-miterlimit="10" stroke-width="3"/>
      <path d="M106.113,77.908c8.353,9.623,6.082,24.351,6.983,36.364" fill="none" stroke="#010101" stroke-linecap="round" stroke-miterlimit="10" stroke-width="3"/>
      <line x1="1.5" y1="93.568" x2="18.265" y2="93.568" fill="none" stroke="#010101" stroke-linecap="round" stroke-miterlimit="10" stroke-width="3"/>
      <line x1="113.372" y1="93.568" x2="127.35" y2="93.568" fill="none" stroke="#010101" stroke-linecap="round" stroke-miterlimit="10" stroke-width="3"/>
    </g>
  </g>
</svg>