<?xml version="1.0" encoding="UTF-8"?>
<svg id="b" data-name="Layer 2" xmlns="http://www.w3.org/2000/svg" width="46.379mm" height="47.079mm" viewBox="0 0 131.468 133.452">
  <g id="c" data-name="Layer 1">
    <g>
      <path d="M39.959,14.586c.298-17.449,26.253-17.446,26.548,0-.298,17.448-26.253,17.446-26.548,0Z" fill="none" stroke="#010101" stroke-linecap="round" stroke-miterlimit="10" stroke-width="3"/>
      <path d="M86.28,51.195c.298-17.449,26.253-17.446,26.548,0-.298,17.448-26.253,17.446-26.548,0Z" fill="none" stroke="#010101" stroke-linecap="round" stroke-miterlimit="10" stroke-width="3"/>
      <path d="M41.115,21.837c-6.049-.034-12.279.393-17.735,3.004-6.256,2.994-10.909,8.606-14.314,14.648-4.111,6.114-14.452,37.004-.535,35.478,2.356-1.066,2.742-4.17,2.999-6.743,1.074-10.743,5.778-21.091,13.168-28.963" fill="none" stroke="#010101" stroke-linecap="round" stroke-miterlimit="10" stroke-width="3"/>
      <path d="M49.243,27.671c6.879,10.195,6.093,25.052,17.604,31.619" fill="none" stroke="#010101" stroke-linecap="round" stroke-miterlimit="10" stroke-width="3"/>
      <path d="M43.427,50.402c5.805,8.996,13.91,17.724,24.835,19.792" fill="none" stroke="#010101" stroke-linecap="round" stroke-miterlimit="10" stroke-width="3"/>
      <path d="M46.131,44.219c-5.252,7.484-10.946,16.433-8.759,25.939,1.756,7.417,8.29,12.96,10.198,20.339,1.67,9.253-.311,18.011-.741,27.65,13.1,7.658-.384,9.784-8.045,7.066-7.879-1.999,4.364-25.155-9.501-37.463" fill="none" stroke="#010101" stroke-linecap="round" stroke-miterlimit="10" stroke-width="3"/>
      <path d="M7.373,75.57c13.42,21.275,3.951,26.673,1.218,47.665.574,4.673,20.977,9.117,15.55.711-8.625-5.951,10.172-29.324,2.293-48.91" fill="none" stroke="#010101" stroke-linecap="round" stroke-miterlimit="10" stroke-width="3"/>
      <path d="M96.212,75.629c1.079,5.951,2.589,11.823,4.514,17.556" fill="none" stroke="#010101" stroke-linecap="round" stroke-miterlimit="10" stroke-width="3"/>
      <path d="M96.422,79.09c-5.79,3.086-12.831,4.948-17.788-.12-4.651-4.584-11.78-8.665-13.632-15.134.106-4.567,5.747-4.961,7.769-1.573.396.663.785,1.331,1.272,1.929,2.843,3.489,6.828,6.429,11.276,7.11,4.345-1.495,8.165-4.519,12.294-6.584" fill="none" stroke="#010101" stroke-linecap="round" stroke-miterlimit="10" stroke-width="3"/>
      <path d="M92.923,101.79c.3-8.212,15.477-7.646,21.529-8.72,4.474.168.536-9.132-.027-11.59" fill="none" stroke="#010101" stroke-linecap="round" stroke-miterlimit="10" stroke-width="3"/>
      <path d="M109.711,60.823c14.031,3.763,24.438,26.216,15.876,38.461-3.167,3.217-15.807,3.554-20.261,2.823" fill="none" stroke="#010101" stroke-linecap="round" stroke-miterlimit="10" stroke-width="3"/>
      <path d="M117.739,110.668c-5.362-7.185-18.823-13.659-25.95-5.714-6.826,7.379-12.478,16.34-21.404,20.96-1.647.745-3.935,2.149-3.234,4.249,2.26,3.07,9.257,1.493,12.414.37,7.611-4.903,14.509-10.939,21.847-16.262" fill="none" stroke="#010101" stroke-linecap="round" stroke-miterlimit="10" stroke-width="3"/>
      <path d="M99.94,116.464c21.385,25.723,34.52-3.947,28.609-25.222" fill="none" stroke="#010101" stroke-linecap="round" stroke-miterlimit="10" stroke-width="3"/>
      <path d="M100.586,93.877c-3.383-1.298-7.177-3.279-10.934-3.731-2.582-.311-5.179.589-7.088,2.354-6.725,6.22-9.065,16.277-14.58,23.506-1.838,1.832-4.556,2.449-6.679,3.941-6.967,6.92,9.29,5.545,12.544,3.859" fill="none" stroke="#010101" stroke-linecap="round" stroke-miterlimit="10" stroke-width="3"/>
      <path d="M78.321,120.125c3.874-5.01,5.013-10.834,8.417-15.236" fill="none" stroke="#010101" stroke-linecap="round" stroke-miterlimit="10" stroke-width="3"/>
    </g>
  </g>
</svg>