<?xml version="1.0" encoding="UTF-8"?>
<svg id="b" data-name="Layer 2" xmlns="http://www.w3.org/2000/svg" width="48.717mm" height="47.47mm" viewBox="0 0 138.096 134.561">
  <g id="c" data-name="Layer 1">
    <g>
      <g>
        <path d="M40.102,76.698l1.607,3.289" fill="none" stroke="#010101" stroke-linecap="round" stroke-miterlimit="10" stroke-width="3"/>
        <path d="M25.137,65.729c-1.436-16.356,22.85-18.904,24.841-2.609,1.436,16.355-22.85,18.904-24.841,2.609Z" fill="none" stroke="#010101" stroke-linecap="round" stroke-miterlimit="10" stroke-width="3"/>
        <path d="M24.926,64.96C3.939,72.6-3.53,101.783,4.895,121.004c6.957,13.731,24.212,13.624,31.658.38,3.341-5.433,4.807-11.78,6.222-18" fill="none" stroke="#010101" stroke-linecap="round" stroke-miterlimit="10" stroke-width="3"/>
        <path d="M28.283,73.826c1.593,3.661,1.814,8.053,4.525,10.983,7.972,7.163,26.308,7.464,31.768,16.871,2.295,3.828-1.57,13.264-6.134,7.909-4.599-4.459-11.194-6.281-17.587-6.675-13.71.365-20.43-2.834-24.519-16.524" fill="none" stroke="#010101" stroke-linecap="round" stroke-miterlimit="10" stroke-width="3"/>
        <path d="M34.891,85.203c10.043-11.069,18.461-3.495,21.471,8.423" fill="none" stroke="#010101" stroke-linecap="round" stroke-miterlimit="10" stroke-width="3"/>
        <path d="M50.658,81.39c9.943-5.439,14.485,8.231,12.004,16.002" fill="none" stroke="#010101" stroke-linecap="round" stroke-miterlimit="10" stroke-width="3"/>
        <path d="M61.595,112.081c-.037,6.015,7.558,4.355,10.842,7.45,4.114,3.496.527,8.123-4.113,7.563" fill="none" stroke="#010101" stroke-linecap="round" stroke-miterlimit="10" stroke-width="3"/>
        <path d="M44.08,104.047c-.166,6.857.021,13.723.56,20.562-.186,3.353,2.617,5.125,5.753,5.345,4.543.116,17.495,3.078,17.461-3.948-1.583-3.424-6.214-4.515-9.481-5.851-3.182-.779-1.304-8.611-1.568-11.318" fill="none" stroke="#010101" stroke-linecap="round" stroke-miterlimit="10" stroke-width="3"/>
        <path d="M16.433,107.702c2.027-2.919,4.463-5.553,7.214-7.803" fill="none" stroke="#010101" stroke-linecap="round" stroke-miterlimit="10" stroke-width="3"/>
      </g>
      <path d="M96.81,15.037c-.308-18.051-27.158-18.048-27.464,0,.308,18.05,27.158,18.047,27.464,0Z" fill="none" stroke="#010101" stroke-linecap="round" stroke-miterlimit="10" stroke-width="3"/>
      <path d="M95.615,22.539c6.257-.035,12.702.406,18.347,3.108,6.472,3.098,11.285,8.903,14.807,15.153,4.253,6.325,14.95,38.28.554,36.702-2.438-1.103-2.837-4.314-3.103-6.976-1.111-11.114-5.978-21.819-13.622-29.962" fill="none" stroke="#010101" stroke-linecap="round" stroke-miterlimit="10" stroke-width="3"/>
      <path d="M93.223,52.089c-6.006,9.306-14.39,18.336-25.691,20.474,0,0-6.492,1.011-4.999-5.812.55-2.515,6.462-5.468,6.462-5.468,11.907-6.794,11.095-22.163,18.211-32.71" fill="none" stroke="#010101" stroke-linecap="round" stroke-miterlimit="10" stroke-width="3"/>
      <path d="M90.426,45.692c5.433,7.743,11.324,17,9.061,26.833-1.817,7.672-8.576,13.407-10.55,21.041-1.727,9.572.322,18.632.767,28.603-13.552,7.922.398,10.122,8.322,7.309,8.15-2.068-4.514-26.023,9.829-38.755" fill="none" stroke="#010101" stroke-linecap="round" stroke-miterlimit="10" stroke-width="3"/>
      <path d="M130.038,79.25c-13.883,22.009-3.605,26.468-.778,48.184-.594,4.834-21.701,9.432-16.087.736,8.923-6.157-10.523-30.335-2.372-50.597" fill="none" stroke="#010101" stroke-linecap="round" stroke-miterlimit="10" stroke-width="3"/>
    </g>
  </g>
</svg>