<?xml version="1.0" encoding="UTF-8"?>
<svg id="b" data-name="Layer 2" xmlns="http://www.w3.org/2000/svg" width="41.325mm" height="34.613mm" viewBox="0 0 117.143 98.116">
  <g id="c" data-name="Layer 1">
    <g>
      <path d="M59.196,51.941C5.405,17.191,37.652-15.433,58.367,12.411c13.501-22.564,37.208-6.503,27.005,15.342-6.043,10.566-14.279,19.403-26.177,24.188Z" fill="none" stroke="#010101" stroke-linecap="round" stroke-miterlimit="10" stroke-width="3"/>
      <path d="M2.106,58.948c11.567,3.57,23.633-6.241,35.585-4.319,7.8,1.254,14.007,7.275,21.561,9.59,7.294,2.235,16.132,1.207,21.551,6.576,2.853,2.3,1.909,6.522-1.343,8.008-11.481,2.672-24.002-.499-35.46-2.551" fill="none" stroke="#010101" stroke-linecap="round" stroke-miterlimit="10" stroke-width="3"/>
      <path d="M1.5,87.988c24.53-5.429,49.358,14.641,73.748,6.777,7.941-2.609,14.572-8.071,20.997-13.417,6.7-5.574,13.513-11.276,18.168-18.643,2.187-2.65,1.519-7.017-2.498-6.55-6.162,1.684-10.527,7.167-15.779,10.587-4.122,2.94-8.865,5.375-13.927,5.438" fill="none" stroke="#010101" stroke-linecap="round" stroke-miterlimit="10" stroke-width="3"/>
      <path d="M113.165,56.191c2.728-2.264,2.446-6.526-1.442-7.127-13.462,1.155-21.77,16.278-34.773,18.774" fill="none" stroke="#010101" stroke-linecap="round" stroke-miterlimit="10" stroke-width="3"/>
      <path d="M105.671,49.881c-9.937-11.774-29.092,15.379-41.592,15.213" fill="none" stroke="#010101" stroke-linecap="round" stroke-miterlimit="10" stroke-width="3"/>
    </g>
  </g>
</svg>