<?xml version="1.0" encoding="UTF-8"?>
<svg id="b" data-name="Layer 2" xmlns="http://www.w3.org/2000/svg" width="42.453mm" height="43.265mm" viewBox="0 0 120.339 122.641">
  <g id="c" data-name="Layer 1">
    <g>
      <path d="M89.247,34.352c4.625,1.336,8.633,9.515,13.479,8.903.746-.046,3.301-2.126,2.962-3.594-2.717-11.793-15-9.361-15.645-10.736" fill="none" stroke="#010101" stroke-linecap="round" stroke-miterlimit="10" stroke-width="3"/>
      <path d="M31.042,16.137c.333-19.517,29.364-19.514,29.695,0-.333,19.516-29.364,19.513-29.695,0Z" fill="none" stroke="#010101" stroke-linecap="round" stroke-miterlimit="10" stroke-width="3"/>
      <path d="M60.737,25.475c.333-19.517,29.364-19.514,29.695,0-.333,19.516-29.364,19.513-29.695,0Z" fill="none" stroke="#010101" stroke-linecap="round" stroke-miterlimit="10" stroke-width="3"/>
      <path d="M35.014,27.992c-15.269,4.121-18.972,22.142-19.356,36.024-.815,5.544,1.122,11.071,6.738,12.962,4.162,1.833,19.74,6.617,16.381-2.682-2.431-3.87-7.711-4.042-11.299-6.088-1.919-7.262-.261-15.444,2.219-22.45" fill="none" stroke="#010101" stroke-linecap="round" stroke-miterlimit="10" stroke-width="3"/>
      <path d="M67.87,39.468c-8.17,6.728-6.161,18.651-5.351,28.004-.12,6.938,7.808,10.093,14.201,10.077" fill="none" stroke="#010101" stroke-linecap="round" stroke-miterlimit="10" stroke-width="3"/>
      <path d="M70.683,53.622c.702,9.367.005,14.871,10.189,18.864" fill="none" stroke="#010101" stroke-linecap="round" stroke-miterlimit="10" stroke-width="3"/>
      <path d="M98.405,52.967c-.376,2.761,1.972,11.108-.353,12.293-6.124,2.862-13.483,3.741-18.149,8.63-2.456,2.152-3.529,7.046.079,8.519" fill="none" stroke="#010101" stroke-linecap="round" stroke-miterlimit="10" stroke-width="3"/>
      <path d="M105.719,41.114c6.47,29.509,11.513,34.666-18.725,38.223-.714.084-1.417.291-2.039.65-9.512,5.503-2.182,20.445-2.064,29.118.605,3.876-4.948,10.504,2.337,10.651,20.189-3.767,8.883-15.718,9.841-27.51.144-1.773,1.262-3.311,2.915-3.969,4.976-1.98,11.568,1.061,10.429-14.041" fill="none" stroke="#010101" stroke-linecap="round" stroke-miterlimit="10" stroke-width="3"/>
      <path d="M69.595,77.549c-16.261,9.567,6.87,28.288-2.47,36.336-.95.819-1.628,1.929-1.923,3.148-1.576,6.518,12.269-.14,15.669-1.771" fill="none" stroke="#010101" stroke-linecap="round" stroke-miterlimit="10" stroke-width="3"/>
      <path d="M21.212,77.448c-11.626,7.691-.6,22.483-.95,32.961-16.386,14.03.684,11.872,10.94,7.129,1.938-.929,2.951-2.799,2.8-4.921.325-10.672.65-21.343.975-32.015" fill="none" stroke="#010101" stroke-linecap="round" stroke-miterlimit="10" stroke-width="3"/>
      <path d="M53.824,72.485c-24.909,4.05-11,20.339-12.608,35.744-1.824,3.073-5.472,6.988-3.306,10.731,3.727,2.86,9.585.141,13.844-.451,1.278-.17,1.928-1.235,2.026-2.467,1.398-8.474,2.199-17.047,2.395-25.633.059-2.587.364-5.691,2.668-6.868" fill="none" stroke="#010101" stroke-linecap="round" stroke-miterlimit="10" stroke-width="3"/>
      <path d="M55.104,28.924l7.132,3.389" fill="none" stroke="#010101" stroke-linecap="round" stroke-miterlimit="10" stroke-width="3"/>
      <line x1="1.5" y1="88.063" x2="15.234" y2="88.717" fill="none" stroke="#010101" stroke-linecap="round" stroke-miterlimit="10" stroke-width="3"/>
      <line x1="101.133" y1="87.736" x2="118.839" y2="88.39" fill="none" stroke="#010101" stroke-linecap="round" stroke-miterlimit="10" stroke-width="3"/>
    </g>
  </g>
</svg>