<?xml version="1.0" encoding="UTF-8"?>
<svg id="b" data-name="Layer 2" xmlns="http://www.w3.org/2000/svg" width="35.535mm" height="38.019mm" viewBox="0 0 100.728 107.77">
  <g id="c" data-name="Layer 1">
    <g>
      <path d="M47.741,11.997c2.536-6.16,8.597-10.497,15.672-10.497,9.356,0,16.94,7.585,16.94,16.94s-7.585,16.94-16.94,16.94c-4.99,0-9.476-2.158-12.577-5.591" fill="none" stroke="#010101" stroke-linecap="round" stroke-miterlimit="10" stroke-width="3"/>
      <path d="M18.979,34.47c-5.07,1.98-9.838,5.105-12.896,9.608s-4.179,10.508-2.07,15.525c.438,1.041,1.025,2.052,1.917,2.655-3.332,14.171-4.799,28.779-4.352,43.33" fill="none" stroke="#010101" stroke-linecap="round" stroke-miterlimit="10" stroke-width="3"/>
      <path d="M76.454,31.992c6.282,1.164,11.459,5.912,14.542,11.507s4.349,11.995,5.26,18.318c2.059,14.288,2.517,28.752,2.972,43.18" fill="none" stroke="#010101" stroke-linecap="round" stroke-miterlimit="10" stroke-width="3"/>
      <path d="M46.472,78.196c-2.369,9.132-3.039,18.701-1.967,28.074" fill="none" stroke="#010101" stroke-linecap="round" stroke-miterlimit="10" stroke-width="3"/>
      <path d="M55.21,76.816c.516,9.551,1.032,19.103,1.549,28.654" fill="none" stroke="#010101" stroke-linecap="round" stroke-miterlimit="10" stroke-width="3"/>
      <path d="M32.527,51.446c3.374,2.859,7.224,5.157,11.343,6.769,1.247.488,2.557.92,3.895.851,1.182-.061,2.307-.509,3.386-.994,7.04-3.159,13.245-8.157,17.833-14.361" fill="none" stroke="#010101" stroke-linecap="round" stroke-miterlimit="10" stroke-width="3"/>
      <path d="M21.087,66.233c3.748,3.559,8.715,5.483,13.545,7.323,3.275,1.247,6.583,2.503,10.051,3.006,7.084,1.028,14.365-1.209,20.417-5.031s11.013-9.139,15.521-14.7" fill="none" stroke="#010101" stroke-linecap="round" stroke-miterlimit="10" stroke-width="3"/>
      <path d="M5.155,62.011c1.451,1.478,3.707,2.11,5.715,1.602s3.691-2.138,4.265-4.127c.154-.533.236-1.095.5-1.583.282-.52.748-.912,1.124-1.37.692-.842,1.078-1.93,1.071-3.02-.004-.626-.13-1.273.07-1.867.183-.542.612-.959.935-1.431,1.445-2.112.543-5.168-1.316-6.927s-4.412-2.538-6.867-3.261" fill="none" stroke="#010101" stroke-linecap="round" stroke-miterlimit="10" stroke-width="3"/>
      <circle cx="33.242" cy="23.034" r="18.172" fill="none" stroke="#010101" stroke-linecap="round" stroke-miterlimit="10" stroke-width="3"/>
      <path d="M15.059,57.253c-1.066-.382-2.188-.606-3.319-.664" fill="none" stroke="#010101" stroke-linecap="round" stroke-miterlimit="10" stroke-width="3"/>
      <path d="M17.669,50.676c-1.104.134-2.228.105-3.324-.083" fill="none" stroke="#010101" stroke-linecap="round" stroke-miterlimit="10" stroke-width="3"/>
    </g>
  </g>
</svg>