<?xml version="1.0" encoding="UTF-8"?>
<svg id="b" data-name="Layer 2" xmlns="http://www.w3.org/2000/svg" width="33.216mm" height="41.207mm" viewBox="0 0 94.157 116.807">
  <g id="c" data-name="Layer 1">
    <g>
      <path d="M17.154,58.404c-3.58,1.806-8.301,5.374-10.232,8.888-.822,1.497-1.249,3.304-.723,4.93s2.729,2.882,3.882,2.655c5.675-1.118,8.256-6.175,10.538-7.771" fill="none" stroke="#010101" stroke-linecap="round" stroke-miterlimit="10" stroke-width="3"/>
      <path d="M11.224,74.773C1.736,84.156.57,101.776,2.013,114.822" fill="none" stroke="#010101" stroke-linecap="round" stroke-miterlimit="10" stroke-width="3"/>
      <path d="M27.875,19.194c.403-23.594,35.498-23.59,35.897,0-.403,23.593-35.498,23.589-35.897,0Z" fill="none" stroke="#010101" stroke-linecap="round" stroke-miterlimit="10" stroke-width="3"/>
      <path d="M18.556,56.488c.37-21.671,32.606-21.668,32.973,0-.37,21.671-32.606,21.667-32.973,0Z" fill="none" stroke="#010101" stroke-linecap="round" stroke-miterlimit="10" stroke-width="3"/>
      <path d="M15.187,87.654c-1.521,9.021-2.392,18.152-2.603,27.298" fill="none" stroke="#010101" stroke-linecap="round" stroke-miterlimit="10" stroke-width="3"/>
      <path d="M62.801,25.494c17.537-1.672,27.185,17.161,29.303,32.239,1.534,5.4-.144,11.095-4.839,14.379-8.572,5.546-14.484,3.482-23.492,8.362-11.187,6.061-16.087-3.527-8.276-8.976,3.398-2.298,5.714-1.221,8.824-3.548,11.133-6.207,14.851-7.882,7.496-20.497" fill="none" stroke="#010101" stroke-linecap="round" stroke-miterlimit="10" stroke-width="3"/>
      <path d="M62.611,81.716c1.628,9.465,3.875,22.933,3.772,32.537" fill="none" stroke="#010101" stroke-linecap="round" stroke-miterlimit="10" stroke-width="3"/>
      <path d="M52.183,95.237c-.285,6.688-.193,13.392.274,20.07" fill="none" stroke="#010101" stroke-linecap="round" stroke-miterlimit="10" stroke-width="3"/>
      <path d="M87.524,73.255c2.789,13.451,3.286,27.375,1.462,40.991" fill="none" stroke="#010101" stroke-linecap="round" stroke-miterlimit="10" stroke-width="3"/>
      <path d="M38.854,39.817l1.064-3.379" fill="none" stroke="#010101" stroke-linecap="round" stroke-miterlimit="10" stroke-width="3"/>
      <path d="M50.312,65.608c2.717.938,5.219,2.494,7.264,4.515" fill="none" stroke="#010101" stroke-linecap="round" stroke-miterlimit="10" stroke-width="3"/>
    </g>
  </g>
</svg>